<?xml version="1.0" encoding="UTF-8"?>
<!-- Generator: visioncortex VTracer 0.6.3 -->
<svg version="1.1" xmlns="http://www.w3.org/2000/svg" width="1280" height="854">
<path d="M0 0 C0.6 0.21 1.2 0.41 1.81 0.62 C1.98 39.34 2.08 78.06 2.09 116.78 C2.1 121.35 2.1 125.92 2.1 130.5 C2.1 131.86 2.1 131.86 2.1 133.25 C2.11 147.99 2.16 162.72 2.23 177.46 C2.31 192.58 2.33 207.7 2.3 222.82 C2.29 232.15 2.32 241.48 2.39 250.81 C2.44 257.2 2.44 263.6 2.4 270 C2.38 273.69 2.38 277.38 2.44 281.07 C2.76 302.67 2.76 302.67 -0.47 307.57 C-3.87 310.88 -7.66 312.25 -12.19 313.62 C-13.69 314.42 -15.17 315.24 -16.62 316.12 C-17.34 316.51 -18.05 316.9 -18.78 317.3 C-27.03 321.83 -35.15 326.59 -43.25 331.38 C-49.55 335.1 -55.89 338.75 -62.25 342.38 C-71.24 347.49 -80.18 352.68 -89.11 357.91 C-90.06 358.46 -91.01 359.02 -91.99 359.59 C-93.34 360.38 -93.34 360.38 -94.71 361.18 C-96.88 362.45 -99.06 363.68 -101.26 364.91 C-104.19 366.46 -104.19 366.46 -106.19 368.62 C-106.91 368.91 -107.63 369.2 -108.37 369.49 C-111.88 370.9 -115.02 372.8 -118.25 374.75 C-125.99 379.36 -133.8 383.85 -141.62 388.31 C-144.06 389.7 -146.49 391.09 -148.92 392.47 C-149.52 392.82 -150.13 393.17 -150.76 393.52 C-164.49 401.36 -178.18 409.27 -191.83 417.25 C-193.87 418.44 -195.91 419.63 -197.95 420.82 C-202.2 423.29 -206.44 425.77 -210.66 428.31 C-211.63 428.89 -211.63 428.89 -212.63 429.49 C-214.28 430.47 -215.93 431.47 -217.58 432.46 C-220.19 433.62 -220.19 433.62 -222.42 433.57 C-224.79 432.3 -225.18 431.09 -226.19 428.62 C-226.42 426.52 -226.42 426.52 -226.4 424.26 C-226.4 423.4 -226.39 422.55 -226.39 421.67 C-226.37 420.75 -226.36 419.84 -226.35 418.9 C-226.34 417.95 -226.34 417.01 -226.33 416.04 C-226.31 413.03 -226.28 410.01 -226.25 407 C-226.22 403.98 -226.2 400.96 -226.18 397.94 C-226.17 396.06 -226.15 394.18 -226.13 392.31 C-226.12 391.46 -226.11 390.61 -226.11 389.74 C-226.1 388.99 -226.09 388.24 -226.08 387.47 C-226.07 385.53 -226.07 385.53 -227.19 383.62 C-234.67 386.5 -241.51 390.65 -248.43 394.65 C-249.84 395.46 -249.84 395.46 -251.27 396.29 C-253.15 397.38 -255.04 398.47 -256.93 399.57 C-258.24 400.34 -258.24 400.34 -259.59 401.11 C-260.38 401.57 -261.17 402.03 -261.98 402.51 C-264.19 403.62 -264.19 403.62 -266.41 404.16 C-267 404.31 -267.58 404.47 -268.19 404.62 C-268.52 405.29 -268.85 405.94 -269.19 406.62 C-270.09 403.52 -270.34 400.7 -270.39 397.47 C-270.41 396.43 -270.43 395.39 -270.45 394.32 C-270.46 393.18 -270.48 392.04 -270.49 390.87 C-270.51 389.67 -270.53 388.47 -270.55 387.23 C-270.72 376.14 -270.82 365.06 -270.89 353.97 C-270.95 345.79 -271.04 337.61 -271.19 329.42 C-271.29 323.66 -271.34 317.89 -271.36 312.13 C-271.37 308.69 -271.4 305.25 -271.49 301.82 C-271.97 279.23 -271.97 279.23 -267.59 273.57 C-264.79 270.7 -261.63 268.67 -258.19 266.62 C-256.72 265.39 -255.28 264.12 -253.88 262.81 C-253.26 262.28 -252.64 261.75 -252 261.2 C-250.73 260.1 -249.47 258.99 -248.21 257.87 C-247.59 257.31 -246.96 256.76 -246.31 256.19 C-245.48 255.45 -245.48 255.45 -244.63 254.69 C-243.19 253.62 -243.19 253.62 -241.19 253.62 C-241.19 252.97 -241.19 252.31 -241.19 251.62 C-239.47 250.06 -237.69 248.57 -235.88 247.12 C-234.89 246.33 -233.9 245.54 -232.89 244.72 C-230.19 242.63 -230.19 242.63 -227.19 240.62 C-226.2 240.96 -225.21 241.28 -224.19 241.62 C-224.19 287.17 -224.19 332.7 -224.19 379.62 C-207.51 370.67 -207.51 370.67 -191.31 360.88 C-188.13 358.81 -184.98 356.96 -181.56 355.31 C-175.32 352.3 -169.43 348.7 -163.47 345.16 C-159.8 342.98 -156.1 340.85 -152.38 338.75 C-146.53 335.43 -140.76 331.98 -135 328.5 C-129.1 324.94 -123.19 321.47 -117.12 318.22 C-106.13 312.23 -95.4 305.78 -84.69 299.31 C-78.81 295.77 -72.92 292.29 -66.85 289.07 C-62.81 286.88 -58.84 284.57 -54.87 282.25 C-52.32 280.78 -49.99 279.56 -47.19 278.62 C-47.19 277.35 -47.19 276.07 -47.19 274.75 C-47.24 244.41 -47.27 214.06 -47.29 183.72 C-47.29 179.98 -47.29 176.25 -47.3 172.52 C-47.3 171.77 -47.3 171.03 -47.3 170.26 C-47.31 158.22 -47.32 146.18 -47.34 134.14 C-47.36 121.79 -47.37 109.44 -47.38 97.08 C-47.38 89.46 -47.39 81.84 -47.4 74.21 C-47.42 68.37 -47.42 62.53 -47.41 56.68 C-47.41 54.29 -47.42 51.89 -47.43 49.49 C-47.44 46.22 -47.43 42.95 -47.43 39.68 C-47.43 38.72 -47.44 37.77 -47.45 36.79 C-47.41 28.42 -47.41 28.42 -45.19 24.62 C-42.88 22.95 -40.73 21.56 -38.25 20.19 C-37.57 19.8 -36.9 19.41 -36.2 19 C-34.2 17.86 -32.2 16.74 -30.19 15.62 C-29.22 15.09 -28.24 14.55 -27.24 13.99 C-25.51 13.04 -23.77 12.1 -22.03 11.17 C-18.55 9.28 -15.12 7.33 -11.69 5.38 C-11.09 5.03 -10.49 4.69 -9.87 4.34 C-1.76 -0.3 -1.76 -0.3 0 0 Z " fill="#F2F5F6" transform="translate(726.1875,182.375)"/>
<path d="M0 0 C1.98 0.33 3.96 0.66 6 1 C6.99 2.49 6.99 2.49 8 4 C9.99 4.69 11.99 5.36 14 6 C14.33 6.66 14.66 7.32 15 8 C16.75 8.76 16.75 8.76 18.81 9.38 C21.53 10.33 22.84 10.83 24.88 12.94 C27.75 15.72 30.88 16.67 34.59 18.06 C38.29 19.5 41.2 21.2 44 24 C44.69 24.58 45.38 25.17 46.1 25.77 C48.51 28.6 48.49 30.02 48.48 33.71 C48.48 34.88 48.49 36.05 48.49 37.26 C48.47 39.19 48.47 39.19 48.44 41.16 C48.44 42.54 48.44 43.92 48.44 45.3 C48.44 49.1 48.41 52.9 48.38 56.7 C48.35 60.8 48.34 64.89 48.33 68.99 C48.32 76.08 48.28 83.18 48.24 90.28 C48.17 100.54 48.13 110.8 48.1 121.06 C48.04 137.71 47.96 154.36 47.87 171 C47.79 187.17 47.71 203.35 47.65 219.52 C47.64 221.01 47.64 221.01 47.63 222.54 C47.61 227.54 47.59 232.54 47.57 237.54 C47.41 279.03 47.21 320.51 47 362 C46.24 362.42 46.24 362.42 45.47 362.85 C43.14 364.13 40.81 365.42 38.48 366.71 C37.68 367.15 36.89 367.59 36.07 368.04 C31.11 370.79 26.22 373.62 21.38 376.56 C16.52 379.5 11.64 382.36 6.69 385.12 C-0.24 389 -7.15 392.91 -14.03 396.86 C-15.21 397.53 -16.39 398.21 -17.58 398.88 C-19.25 399.83 -20.91 400.78 -22.58 401.74 C-23.55 402.3 -24.53 402.85 -25.53 403.43 C-27.97 404.85 -27.97 404.85 -29.53 406.58 C-31.47 408.45 -33.48 409.05 -36 410 C-37.69 410.89 -39.37 411.81 -41.03 412.76 C-41.98 413.3 -42.93 413.84 -43.91 414.39 C-44.91 414.96 -45.91 415.54 -46.94 416.12 C-47.97 416.71 -49.01 417.3 -50.07 417.91 C-52.13 419.08 -54.18 420.25 -56.23 421.42 C-58.5 422.71 -60.76 424 -63.03 425.29 C-73.53 431.25 -83.97 437.35 -94.31 443.6 C-95.34 444.22 -95.34 444.22 -96.38 444.86 C-97.68 445.64 -98.97 446.43 -100.27 447.22 C-102.83 448.78 -105.14 450.05 -108 451 C-109.34 451.99 -110.67 452.99 -112 454 C-113.55 454.88 -115.11 455.73 -116.69 456.56 C-121.59 459.2 -126.4 461.97 -131.19 464.81 C-137.4 468.49 -143.64 472.09 -149.96 475.58 C-153.54 477.57 -157.06 479.64 -160.54 481.82 C-161.29 482.29 -162.05 482.75 -162.83 483.24 C-164.28 484.14 -165.72 485.06 -167.15 485.99 C-170.76 488.21 -172.46 489.02 -176.82 488.87 C-180.02 487.99 -182.26 486.83 -185 485 C-185.99 484.67 -186.98 484.34 -188 484 C-189.01 483.01 -190.01 482.01 -191 481 C-192.34 480.15 -193.7 479.35 -195.09 478.59 C-195.87 478.16 -196.66 477.72 -197.47 477.28 C-198.28 476.84 -199.1 476.39 -199.94 475.94 C-200.75 475.49 -201.56 475.04 -202.4 474.58 C-206.72 472.21 -206.72 472.21 -211.12 469.95 C-213.46 468.77 -215.58 467.35 -217.75 465.88 C-218.95 465.07 -218.95 465.07 -220.17 464.24 C-221.08 463.63 -221.08 463.63 -222 463 C-219.34 460.18 -216.78 458.08 -213.44 456.12 C-212.57 455.62 -211.69 455.11 -210.8 454.58 C-207.07 452.47 -203.32 450.42 -199.54 448.39 C-197.89 447.49 -196.25 446.55 -194.62 445.57 C-192.04 444.02 -189.42 442.55 -186.78 441.09 C-179.05 436.8 -171.46 432.29 -163.94 427.63 C-162.86 426.96 -162.86 426.96 -161.77 426.29 C-161.13 425.89 -160.5 425.5 -159.85 425.09 C-154.61 422 -154.61 422 -151 422 C-151 421.34 -151 420.68 -151 420 C-150.37 419.66 -149.74 419.32 -149.09 418.97 C-139.01 413.51 -129.04 407.92 -119.31 401.88 C-114.58 398.93 -109.78 396.19 -104.87 393.55 C-96.88 389.23 -89.03 384.67 -81.31 379.88 C-75.65 376.36 -69.88 373.13 -64 370 C-57.01 366.27 -50.15 362.35 -43.34 358.32 C-36.38 354.21 -29.38 350.16 -22.38 346.12 C-20.7 345.16 -20.7 345.16 -19 344.18 C-16.91 342.98 -14.82 341.77 -12.73 340.58 C-11.07 339.61 -9.4 338.65 -7.74 337.67 C-3.21 335 -3.21 335 -1 335 C-0.67 224.45 -0.34 113.9 0 0 Z " fill="#F4F8F9" transform="translate(775,182)"/>
<path d="M0 0 C0.66 0.33 1.32 0.66 2 1 C2.4 19.08 2.7 37.16 2.88 55.24 C2.97 63.64 3.09 72.04 3.28 80.43 C3.45 87.75 3.56 95.07 3.6 102.39 C3.62 106.27 3.67 110.14 3.8 114.02 C4.52 137.56 4.52 137.56 0.35 143.25 C-3.61 146.75 -7.95 148.67 -12.94 150.28 C-15.91 151.32 -18.46 152.9 -21.11 154.57 C-22.85 155.57 -24.58 156.56 -26.31 157.56 C-27.2 158.08 -28.1 158.6 -29.01 159.13 C-30.3 159.87 -30.3 159.87 -31.61 160.63 C-32.36 161.06 -33.11 161.5 -33.89 161.94 C-36 163 -36 163 -38.21 163.52 C-39.1 163.76 -39.1 163.76 -40 164 C-40.5 164.99 -40.5 164.99 -41 166 C-41.9 162.9 -42.15 160.08 -42.2 156.85 C-42.23 155.29 -42.23 155.29 -42.26 153.69 C-42.27 152.55 -42.29 151.42 -42.3 150.25 C-42.32 149.04 -42.34 147.84 -42.36 146.6 C-42.53 135.52 -42.63 124.43 -42.7 113.35 C-42.76 105.16 -42.85 96.98 -43 88.8 C-43.1 83.03 -43.15 77.27 -43.17 71.5 C-43.18 68.06 -43.22 64.63 -43.3 61.19 C-43.79 38.61 -43.79 38.61 -39.4 32.94 C-36.6 30.08 -33.44 28.04 -30 26 C-28.54 24.76 -27.09 23.5 -25.69 22.19 C-25.07 21.65 -24.45 21.12 -23.82 20.57 C-22.54 19.47 -21.28 18.36 -20.03 17.24 C-19.4 16.69 -18.77 16.13 -18.12 15.56 C-17.57 15.07 -17.02 14.58 -16.45 14.07 C-15 13 -15 13 -13 13 C-13 12.34 -13 11.68 -13 11 C-11.26 9.44 -9.46 7.95 -7.62 6.5 C-3.69 3.39 -3.69 3.39 0 0 Z " fill="#F4F8F9" transform="translate(498,423)"/>
<path d="M0 0 C0.33 0 0.66 0 1 0 C1 109.23 1 218.46 1 331 C0.67 331 0.34 331 0 331 C0 221.77 0 112.54 0 0 Z " fill="#000102" transform="translate(823,213)"/>
<path d="M0 0 C0.33 0 0.66 0 1 0 C1 100.65 1 201.3 1 305 C0.67 305 0.34 305 0 305 C0 204.35 0 103.7 0 0 Z " fill="#000102" transform="translate(728,183)"/>
<path d="M0 0 C0.33 0 0.66 0 1 0 C1 45.54 1 91.08 1 138 C1.66 138.33 2.32 138.66 3 139 C2.34 139 1.68 139 1 139 C0.67 140.65 0.34 142.3 0 144 C-0.66 143.01 -1.32 142.02 -2 141 C-1.67 140.01 -1.34 139.02 -1 138 C-0.9 136.14 -0.85 134.27 -0.84 132.4 C-0.83 130.65 -0.83 130.65 -0.81 128.87 C-0.81 127.59 -0.8 126.31 -0.79 124.99 C-0.79 123.63 -0.78 122.27 -0.76 120.91 C-0.74 117.22 -0.72 113.52 -0.7 109.83 C-0.67 105.97 -0.65 102.11 -0.62 98.25 C-0.57 90.94 -0.53 83.63 -0.48 76.32 C-0.43 68 -0.38 59.68 -0.32 51.36 C-0.21 34.24 -0.1 17.12 0 0 Z " fill="#000102" transform="translate(501,424)"/>
<path d="M0 0 C3 1 3 1 3 1 Z " fill="#000102" transform="translate(598,672)"/>
<path d="M0 0 C2 1 2 1 2 1 Z " fill="#000102" transform="translate(607,668)"/>
<path d="M0 0 C2 1 2 1 2 1 Z " fill="#000102" transform="translate(582,663)"/>
<path d="M0 0 C2 1 2 1 2 1 Z " fill="#000102" transform="translate(619,661)"/>
<path d="M0 0 C2 1 2 1 2 1 Z " fill="#000102" transform="translate(556,648)"/>
<path d="M0 0 C2 1 2 1 2 1 Z " fill="#000102" transform="translate(645,646)"/>
<path d="M0 0 C2 1 2 1 2 1 Z " fill="#000102" transform="translate(657,639)"/>
<path d="M0 0 C2 1 2 1 2 1 Z " fill="#000102" transform="translate(671,631)"/>
<path d="M0 0 C2 1 2 1 2 1 Z " fill="#000102" transform="translate(680,626)"/>
<path d="M0 0 C2 1 2 1 2 1 Z " fill="#000102" transform="translate(503,617)"/>
<path d="M0 0 C2 1 2 1 2 1 Z " fill="#000102" transform="translate(702,613)"/>
<path d="M0 0 C2 1 2 1 2 1 Z " fill="#000102" transform="translate(706,611)"/>
<path d="M0 0 C2 1 2 1 2 1 Z " fill="#000102" transform="translate(518,609)"/>
<path d="M0 0 C2 1 2 1 2 1 Z " fill="#000102" transform="translate(718,604)"/>
<path d="M0 0 C2 1 2 1 2 1 Z " fill="#000102" transform="translate(530,602)"/>
<path d="M0 0 C2 1 2 1 2 1 Z " fill="#000102" transform="translate(460,587)"/>
<path d="M0 0 C2 1 2 1 2 1 Z " fill="#000102" transform="translate(462,586)"/>
<path d="M0 0 C2 1 2 1 2 1 Z " fill="#000102" transform="translate(756,582)"/>
<path d="M0 0 C2 1 2 1 2 1 Z " fill="#000102" transform="translate(768,575)"/>
<path d="M0 0 C2 1 2 1 2 1 Z " fill="#000102" transform="translate(577,575)"/>
<path d="M0 0 C2 1 2 1 2 1 Z " fill="#000102" transform="translate(771,573)"/>
<path d="M0 0 C2 1 2 1 2 1 Z " fill="#000102" transform="translate(485,573)"/>
<path d="M0 0 C2 1 2 1 2 1 Z " fill="#000102" transform="translate(775,571)"/>
<path d="M0 0 C2 1 2 1 2 1 Z " fill="#000102" transform="translate(584,571)"/>
<path d="M0 0 C2 1 2 1 2 1 Z " fill="#000102" transform="translate(488,571)"/>
<path d="M0 0 C2 1 2 1 2 1 Z " fill="#000102" transform="translate(787,564)"/>
<path d="M0 0 C2 1 2 1 2 1 Z " fill="#000102" transform="translate(603,560)"/>
<path d="M0 0 C2 1 2 1 2 1 Z " fill="#000102" transform="translate(806,553)"/>
<path d="M0 0 C2 1 2 1 2 1 Z " fill="#000102" transform="translate(622,549)"/>
<path d="M0 0 C2 1 2 1 2 1 Z " fill="#000102" transform="translate(634,542)"/>
<path d="M0 0 C2 1 2 1 2 1 Z " fill="#000102" transform="translate(641,538)"/>
<path d="M0 0 C2 1 2 1 2 1 Z " fill="#000102" transform="translate(660,527)"/>
<path d="M0 0 C2 1 2 1 2 1 Z " fill="#000102" transform="translate(665,524)"/>
<path d="M0 0 C2 1 2 1 2 1 Z " fill="#000102" transform="translate(672,520)"/>
<path d="M0 0 C2 1 2 1 2 1 Z " fill="#000102" transform="translate(679,516)"/>
<path d="M0 0 C2 1 2 1 2 1 Z " fill="#000102" transform="translate(708,499)"/>
<path d="M0 0 C2 1 2 1 2 1 Z " fill="#000102" transform="translate(821,207)"/>
<path d="" fill="#000102" transform="translate(0,0)"/>
<path d="" fill="#000102" transform="translate(0,0)"/>
<path d="" fill="#000102" transform="translate(0,0)"/>
<path d="" fill="#000102" transform="translate(0,0)"/>
<path d="" fill="#000102" transform="translate(0,0)"/>
<path d="" fill="#000102" transform="translate(0,0)"/>
<path d="" fill="#000102" transform="translate(0,0)"/>
<path d="" fill="#000102" transform="translate(0,0)"/>
<path d="" fill="#000102" transform="translate(0,0)"/>
<path d="" fill="#000102" transform="translate(0,0)"/>
<path d="" fill="#000102" transform="translate(0,0)"/>
<path d="" fill="#000102" transform="translate(0,0)"/>
<path d="" fill="#000102" transform="translate(0,0)"/>
<path d="" fill="#000102" transform="translate(0,0)"/>
<path d="" fill="#000102" transform="translate(0,0)"/>
<path d="" fill="#000102" transform="translate(0,0)"/>
<path d="" fill="#000102" transform="translate(0,0)"/>
<path d="" fill="#000102" transform="translate(0,0)"/>
<path d="" fill="#000102" transform="translate(0,0)"/>
<path d="" fill="#000102" transform="translate(0,0)"/>
<path d="" fill="#000102" transform="translate(0,0)"/>
<path d="" fill="#000102" transform="translate(0,0)"/>
<path d="" fill="#000102" transform="translate(0,0)"/>
<path d="" fill="#000102" transform="translate(0,0)"/>
<path d="" fill="#000102" transform="translate(0,0)"/>
<path d="" fill="#000102" transform="translate(0,0)"/>
<path d="" fill="#000102" transform="translate(0,0)"/>
<path d="" fill="#000102" transform="translate(0,0)"/>
<path d="" fill="#000102" transform="translate(0,0)"/>
<path d="" fill="#000102" transform="translate(0,0)"/>
<path d="" fill="#000102" transform="translate(0,0)"/>
<path d="" fill="#000102" transform="translate(0,0)"/>
<path d="" fill="#000102" transform="translate(0,0)"/>
<path d="" fill="#000102" transform="translate(0,0)"/>
<path d="" fill="#000102" transform="translate(0,0)"/>
<path d="" fill="#000102" transform="translate(0,0)"/>
<path d="" fill="#000102" transform="translate(0,0)"/>
<path d="" fill="#000102" transform="translate(0,0)"/>
<path d="" fill="#000102" transform="translate(0,0)"/>
<path d="" fill="#000102" transform="translate(0,0)"/>
<path d="" fill="#000102" transform="translate(0,0)"/>
<path d="" fill="#000102" transform="translate(0,0)"/>
<path d="" fill="#000102" transform="translate(0,0)"/>
<path d="" fill="#000102" transform="translate(0,0)"/>
<path d="" fill="#000102" transform="translate(0,0)"/>
<path d="" fill="#000102" transform="translate(0,0)"/>
<path d="" fill="#000102" transform="translate(0,0)"/>
<path d="" fill="#000102" transform="translate(0,0)"/>
<path d="" fill="#000102" transform="translate(0,0)"/>
<path d="" fill="#000102" transform="translate(0,0)"/>
<path d="" fill="#000102" transform="translate(0,0)"/>
<path d="" fill="#000102" transform="translate(0,0)"/>
<path d="" fill="#000102" transform="translate(0,0)"/>
<path d="" fill="#000102" transform="translate(0,0)"/>
<path d="" fill="#000102" transform="translate(0,0)"/>
<path d="" fill="#000102" transform="translate(0,0)"/>
<path d="" fill="#000102" transform="translate(0,0)"/>
<path d="" fill="#000102" transform="translate(0,0)"/>
<path d="" fill="#000102" transform="translate(0,0)"/>
<path d="" fill="#000102" transform="translate(0,0)"/>
<path d="" fill="#000102" transform="translate(0,0)"/>
<path d="" fill="#000102" transform="translate(0,0)"/>
<path d="" fill="#000102" transform="translate(0,0)"/>
<path d="" fill="#000102" transform="translate(0,0)"/>
<path d="" fill="#000102" transform="translate(0,0)"/>
<path d="" fill="#000102" transform="translate(0,0)"/>
<path d="" fill="#000102" transform="translate(0,0)"/>
<path d="" fill="#000102" transform="translate(0,0)"/>
<path d="" fill="#000102" transform="translate(0,0)"/>
<path d="" fill="#000102" transform="translate(0,0)"/>
<path d="" fill="#000102" transform="translate(0,0)"/>
<path d="" fill="#000102" transform="translate(0,0)"/>
<path d="" fill="#000102" transform="translate(0,0)"/>
<path d="" fill="#000102" transform="translate(0,0)"/>
<path d="" fill="#000102" transform="translate(0,0)"/>
<path d="" fill="#000102" transform="translate(0,0)"/>
<path d="" fill="#000102" transform="translate(0,0)"/>
<path d="" fill="#000102" transform="translate(0,0)"/>
<path d="" fill="#000102" transform="translate(0,0)"/>
<path d="" fill="#000102" transform="translate(0,0)"/>
<path d="" fill="#000102" transform="translate(0,0)"/>
<path d="" fill="#000102" transform="translate(0,0)"/>
<path d="" fill="#000102" transform="translate(0,0)"/>
<path d="" fill="#000102" transform="translate(0,0)"/>
<path d="" fill="#000102" transform="translate(0,0)"/>
<path d="" fill="#000102" transform="translate(0,0)"/>
<path d="" fill="#000102" transform="translate(0,0)"/>
<path d="" fill="#000102" transform="translate(0,0)"/>
<path d="" fill="#000102" transform="translate(0,0)"/>
<path d="" fill="#000102" transform="translate(0,0)"/>
<path d="" fill="#000102" transform="translate(0,0)"/>
<path d="" fill="#000102" transform="translate(0,0)"/>
<path d="" fill="#000102" transform="translate(0,0)"/>
<path d="" fill="#000102" transform="translate(0,0)"/>
<path d="" fill="#000102" transform="translate(0,0)"/>
<path d="" fill="#000102" transform="translate(0,0)"/>
<path d="" fill="#000102" transform="translate(0,0)"/>
<path d="" fill="#000102" transform="translate(0,0)"/>
<path d="" fill="#000102" transform="translate(0,0)"/>
<path d="" fill="#000102" transform="translate(0,0)"/>
<path d="" fill="#000102" transform="translate(0,0)"/>
<path d="" fill="#000102" transform="translate(0,0)"/>
<path d="" fill="#000102" transform="translate(0,0)"/>
<path d="" fill="#000102" transform="translate(0,0)"/>
<path d="" fill="#000102" transform="translate(0,0)"/>
<path d="" fill="#000102" transform="translate(0,0)"/>
<path d="" fill="#000102" transform="translate(0,0)"/>
<path d="" fill="#000102" transform="translate(0,0)"/>
<path d="" fill="#000102" transform="translate(0,0)"/>
<path d="" fill="#000102" transform="translate(0,0)"/>
<path d="" fill="#000102" transform="translate(0,0)"/>
<path d="" fill="#000102" transform="translate(0,0)"/>
<path d="" fill="#000102" transform="translate(0,0)"/>
<path d="" fill="#000102" transform="translate(0,0)"/>
<path d="" fill="#000102" transform="translate(0,0)"/>
<path d="" fill="#000102" transform="translate(0,0)"/>
<path d="" fill="#000102" transform="translate(0,0)"/>
<path d="" fill="#000102" transform="translate(0,0)"/>
<path d="" fill="#000102" transform="translate(0,0)"/>
<path d="" fill="#000102" transform="translate(0,0)"/>
<path d="" fill="#000102" transform="translate(0,0)"/>
<path d="" fill="#000102" transform="translate(0,0)"/>
<path d="" fill="#000102" transform="translate(0,0)"/>
<path d="" fill="#000102" transform="translate(0,0)"/>
<path d="" fill="#000102" transform="translate(0,0)"/>
<path d="" fill="#000102" transform="translate(0,0)"/>
<path d="" fill="#000102" transform="translate(0,0)"/>
<path d="" fill="#000102" transform="translate(0,0)"/>
<path d="" fill="#000102" transform="translate(0,0)"/>
<path d="" fill="#000102" transform="translate(0,0)"/>
<path d="" fill="#000102" transform="translate(0,0)"/>
<path d="" fill="#000102" transform="translate(0,0)"/>
<path d="" fill="#000102" transform="translate(0,0)"/>
<path d="" fill="#000102" transform="translate(0,0)"/>
<path d="" fill="#000102" transform="translate(0,0)"/>
<path d="" fill="#000102" transform="translate(0,0)"/>
<path d="" fill="#000102" transform="translate(0,0)"/>
<path d="" fill="#000102" transform="translate(0,0)"/>
<path d="" fill="#000102" transform="translate(0,0)"/>
<path d="" fill="#000102" transform="translate(0,0)"/>
<path d="" fill="#000102" transform="translate(0,0)"/>
<path d="" fill="#000102" transform="translate(0,0)"/>
<path d="" fill="#000102" transform="translate(0,0)"/>
<path d="" fill="#000102" transform="translate(0,0)"/>
<path d="" fill="#000102" transform="translate(0,0)"/>
<path d="" fill="#000102" transform="translate(0,0)"/>
<path d="" fill="#000102" transform="translate(0,0)"/>
<path d="" fill="#000102" transform="translate(0,0)"/>
<path d="" fill="#000102" transform="translate(0,0)"/>
<path d="" fill="#000102" transform="translate(0,0)"/>
<path d="" fill="#000102" transform="translate(0,0)"/>
<path d="" fill="#000102" transform="translate(0,0)"/>
<path d="" fill="#000102" transform="translate(0,0)"/>
<path d="" fill="#000102" transform="translate(0,0)"/>
<path d="" fill="#000102" transform="translate(0,0)"/>
<path d="" fill="#000102" transform="translate(0,0)"/>
<path d="" fill="#000102" transform="translate(0,0)"/>
<path d="" fill="#000102" transform="translate(0,0)"/>
<path d="" fill="#000102" transform="translate(0,0)"/>
<path d="" fill="#000102" transform="translate(0,0)"/>
<path d="" fill="#000102" transform="translate(0,0)"/>
<path d="" fill="#000102" transform="translate(0,0)"/>
<path d="" fill="#000102" transform="translate(0,0)"/>
<path d="" fill="#000102" transform="translate(0,0)"/>
<path d="" fill="#000102" transform="translate(0,0)"/>
<path d="" fill="#000102" transform="translate(0,0)"/>
<path d="" fill="#000102" transform="translate(0,0)"/>
<path d="" fill="#000102" transform="translate(0,0)"/>
<path d="" fill="#000102" transform="translate(0,0)"/>
<path d="" fill="#000102" transform="translate(0,0)"/>
<path d="" fill="#000102" transform="translate(0,0)"/>
<path d="" fill="#000102" transform="translate(0,0)"/>
<path d="" fill="#000102" transform="translate(0,0)"/>
<path d="" fill="#000102" transform="translate(0,0)"/>
<path d="" fill="#000102" transform="translate(0,0)"/>
<path d="" fill="#000102" transform="translate(0,0)"/>
<path d="" fill="#000102" transform="translate(0,0)"/>
<path d="" fill="#000102" transform="translate(0,0)"/>
<path d="" fill="#000102" transform="translate(0,0)"/>
<path d="" fill="#000102" transform="translate(0,0)"/>
<path d="" fill="#000102" transform="translate(0,0)"/>
<path d="" fill="#000102" transform="translate(0,0)"/>
<path d="" fill="#000102" transform="translate(0,0)"/>
<path d="" fill="#000102" transform="translate(0,0)"/>
<path d="" fill="#000102" transform="translate(0,0)"/>
<path d="" fill="#000102" transform="translate(0,0)"/>
<path d="" fill="#000102" transform="translate(0,0)"/>
<path d="" fill="#000102" transform="translate(0,0)"/>
<path d="" fill="#000102" transform="translate(0,0)"/>
<path d="" fill="#000102" transform="translate(0,0)"/>
<path d="" fill="#000102" transform="translate(0,0)"/>
<path d="" fill="#000102" transform="translate(0,0)"/>
<path d="" fill="#000102" transform="translate(0,0)"/>
<path d="" fill="#000102" transform="translate(0,0)"/>
<path d="" fill="#000102" transform="translate(0,0)"/>
<path d="" fill="#000102" transform="translate(0,0)"/>
<path d="" fill="#000102" transform="translate(0,0)"/>
<path d="" fill="#000102" transform="translate(0,0)"/>
<path d="" fill="#000102" transform="translate(0,0)"/>
<path d="" fill="#000102" transform="translate(0,0)"/>
<path d="" fill="#000102" transform="translate(0,0)"/>
<path d="" fill="#000102" transform="translate(0,0)"/>
<path d="" fill="#000102" transform="translate(0,0)"/>
<path d="" fill="#000102" transform="translate(0,0)"/>
<path d="" fill="#000102" transform="translate(0,0)"/>
<path d="" fill="#000102" transform="translate(0,0)"/>
<path d="" fill="#000102" transform="translate(0,0)"/>
<path d="" fill="#000102" transform="translate(0,0)"/>
<path d="" fill="#000102" transform="translate(0,0)"/>
<path d="" fill="#000102" transform="translate(0,0)"/>
<path d="" fill="#000102" transform="translate(0,0)"/>
<path d="" fill="#000102" transform="translate(0,0)"/>
<path d="" fill="#000102" transform="translate(0,0)"/>
<path d="" fill="#000102" transform="translate(0,0)"/>
<path d="" fill="#000102" transform="translate(0,0)"/>
<path d="" fill="#000102" transform="translate(0,0)"/>
<path d="" fill="#000102" transform="translate(0,0)"/>
<path d="" fill="#000102" transform="translate(0,0)"/>
<path d="" fill="#000102" transform="translate(0,0)"/>
<path d="" fill="#000102" transform="translate(0,0)"/>
<path d="" fill="#000102" transform="translate(0,0)"/>
<path d="" fill="#000102" transform="translate(0,0)"/>
<path d="" fill="#000102" transform="translate(0,0)"/>
<path d="" fill="#000102" transform="translate(0,0)"/>
<path d="" fill="#000102" transform="translate(0,0)"/>
<path d="" fill="#000102" transform="translate(0,0)"/>
</svg>
